<svg xmlns="http://www.w3.org/2000/svg" viewBox="0 0 32 32" fill="none">
  <rect width="32" height="32" rx="6" fill="#161310"/>
  <rect x="6" y="18.5" width="5.2" height="7.5" rx="1" fill="#f0c56a"/>
  <rect x="12.9" y="12.5" width="5.2" height="13.5" rx="1" fill="#f0c56a"/>
  <path
    fill="#f0c56a"
    d="M19.8 26c0 .55.45 1 1 1h4.4c.55 0 1-.45 1-1V10.8L23 6.2 19.8 10.8V26z"
  />
  <!-- sword cutout -->
  <path
    fill="#161310"
    fill-rule="evenodd"
    d="M23 8.4 22.15 9.8v6.9h-1.05v1.2H22.15v1.55c0 .6.4 1 1 1s1-.4 1-1V17.9h1.05v-1.2H24.15V9.8L23 8.4zm-1.85 7.05h3.7v1.4h-3.7z"
  />
</svg>
